<svg version="1.1" id="Capa_1" xmlns="http://www.w3.org/2000/svg" xmlns:xlink="http://www.w3.org/1999/xlink" viewBox="0 0 64 64" xml:space="preserve">
<g>
	<path d="M50.5,27.5c0.2-1,0.3-2,0.3-3c0-8.3-6.7-15-15-15c-0.3,0-0.6,0-0.9,0C33.5,6.8,31.3,6,29,6c-5.5,0-10,4.5-10,10c0,0.5,0,0.9,0.1,1.4
		C10.9,19.9,8,24.3,8,29.5c0,6.9,5.6,12.5,12.5,12.5h29c4.7,0,8.5-3.8,8.5-8.5C58,31.1,54.6,27.7,50.5,27.5z M34.5,44.5h-9
		c-0.3,0-0.5,0.2-0.6,0.5l-2,10c-0.1,0.3,0,0.6,0.2,0.8C23.3,56,23.4,56,23.5,56c0.1,0,0.2,0,0.2,0l8-4c0.3-0.1,0.4-0.5,0.3-0.8
		c-0.1-0.3-0.5-0.4-0.8-0.3l-6.1,3l1.5-7.5h8.9c0.3,0,0.5-0.2,0.6-0.5l2-8c0.1-0.3,0-0.6-0.2-0.8C35.2,44.6,34.9,44.4,34.5,44.5z
		 M41.4,38.3c-0.1,0-0.2,0-0.3,0c-0.3,0.1-0.5,0.4-0.4,0.7l0.9,2.7l-5.1,1.7c-0.3,0.1-0.4,0.4-0.4,0.7c0.1,0.3,0.4,0.5,0.7,0.4
		l6-2c0.3-0.1,0.4-0.4,0.3-0.7l-1.2-3.5C41.8,38.4,41.6,38.3,41.4,38.3z"/>
</g>
</svg>
